<mxfile host="app.diagrams.net" modified="2024-03-06T16:09:18.241Z" agent="Mozilla/5.0 (Windows NT 10.0; Win64; x64) AppleWebKit/537.36 (KHTML, like Gecko) Chrome/122.0.0.0 Safari/537.36" etag="Mu1D4NPb_uCo2VczIw7S" version="24.0.1" type="github">
  <diagram id="C5RBs43oDa-KdzZeNtuy" name="Page-1">
    <mxGraphModel dx="954" dy="600" grid="1" gridSize="10" guides="1" tooltips="1" connect="1" arrows="1" fold="1" page="1" pageScale="1" pageWidth="827" pageHeight="1169" math="0" shadow="0">
      <root>
        <mxCell id="WIyWlLk6GJQsqaUBKTNV-0" />
        <mxCell id="WIyWlLk6GJQsqaUBKTNV-1" parent="WIyWlLk6GJQsqaUBKTNV-0" />
        <mxCell id="3XNKm1Zu1vUke6XJzc6g-7" style="edgeStyle=orthogonalEdgeStyle;rounded=0;orthogonalLoop=1;jettySize=auto;html=1;exitX=0.5;exitY=1;exitDx=0;exitDy=0;exitPerimeter=0;entryX=0.5;entryY=0;entryDx=0;entryDy=0;" edge="1" parent="WIyWlLk6GJQsqaUBKTNV-1" source="3XNKm1Zu1vUke6XJzc6g-0" target="3XNKm1Zu1vUke6XJzc6g-2">
          <mxGeometry relative="1" as="geometry" />
        </mxCell>
        <mxCell id="3XNKm1Zu1vUke6XJzc6g-0" value="1" style="strokeWidth=2;html=1;shape=mxgraph.flowchart.start_1;whiteSpace=wrap;" vertex="1" parent="WIyWlLk6GJQsqaUBKTNV-1">
          <mxGeometry x="392" y="10" width="43" height="40" as="geometry" />
        </mxCell>
        <mxCell id="3XNKm1Zu1vUke6XJzc6g-1" value="Fin" style="strokeWidth=2;html=1;shape=mxgraph.flowchart.start_1;whiteSpace=wrap;" vertex="1" parent="WIyWlLk6GJQsqaUBKTNV-1">
          <mxGeometry x="391" y="450" width="46" height="40" as="geometry" />
        </mxCell>
        <mxCell id="3XNKm1Zu1vUke6XJzc6g-2" value="Validar campos" style="rounded=1;whiteSpace=wrap;html=1;absoluteArcSize=1;arcSize=14;strokeWidth=2;" vertex="1" parent="WIyWlLk6GJQsqaUBKTNV-1">
          <mxGeometry x="364" y="70" width="100" height="40" as="geometry" />
        </mxCell>
        <mxCell id="3XNKm1Zu1vUke6XJzc6g-3" value="¿Formulario completo?" style="strokeWidth=2;html=1;shape=mxgraph.flowchart.decision;whiteSpace=wrap;" vertex="1" parent="WIyWlLk6GJQsqaUBKTNV-1">
          <mxGeometry x="326" y="130" width="176" height="60" as="geometry" />
        </mxCell>
        <mxCell id="3XNKm1Zu1vUke6XJzc6g-6" style="edgeStyle=orthogonalEdgeStyle;rounded=0;orthogonalLoop=1;jettySize=auto;html=1;exitX=0.5;exitY=0;exitDx=0;exitDy=0;exitPerimeter=0;entryX=1;entryY=0.5;entryDx=0;entryDy=0;" edge="1" parent="WIyWlLk6GJQsqaUBKTNV-1" source="3XNKm1Zu1vUke6XJzc6g-4" target="3XNKm1Zu1vUke6XJzc6g-2">
          <mxGeometry relative="1" as="geometry" />
        </mxCell>
        <mxCell id="3XNKm1Zu1vUke6XJzc6g-4" value="Campos incompletos" style="strokeWidth=2;html=1;shape=mxgraph.flowchart.display;whiteSpace=wrap;" vertex="1" parent="WIyWlLk6GJQsqaUBKTNV-1">
          <mxGeometry x="560" y="130" width="100" height="60" as="geometry" />
        </mxCell>
        <mxCell id="3XNKm1Zu1vUke6XJzc6g-5" style="edgeStyle=orthogonalEdgeStyle;rounded=0;orthogonalLoop=1;jettySize=auto;html=1;exitX=1;exitY=0.5;exitDx=0;exitDy=0;exitPerimeter=0;entryX=0;entryY=0.5;entryDx=0;entryDy=0;entryPerimeter=0;" edge="1" parent="WIyWlLk6GJQsqaUBKTNV-1" source="3XNKm1Zu1vUke6XJzc6g-3" target="3XNKm1Zu1vUke6XJzc6g-4">
          <mxGeometry relative="1" as="geometry" />
        </mxCell>
        <mxCell id="3XNKm1Zu1vUke6XJzc6g-8" style="edgeStyle=orthogonalEdgeStyle;rounded=0;orthogonalLoop=1;jettySize=auto;html=1;exitX=0.5;exitY=1;exitDx=0;exitDy=0;entryX=0.5;entryY=0;entryDx=0;entryDy=0;entryPerimeter=0;" edge="1" parent="WIyWlLk6GJQsqaUBKTNV-1" source="3XNKm1Zu1vUke6XJzc6g-2" target="3XNKm1Zu1vUke6XJzc6g-3">
          <mxGeometry relative="1" as="geometry" />
        </mxCell>
        <mxCell id="3XNKm1Zu1vUke6XJzc6g-9" value="¿Formato de correo correcto?" style="strokeWidth=2;html=1;shape=mxgraph.flowchart.decision;whiteSpace=wrap;" vertex="1" parent="WIyWlLk6GJQsqaUBKTNV-1">
          <mxGeometry x="311" y="220" width="206" height="60" as="geometry" />
        </mxCell>
        <mxCell id="3XNKm1Zu1vUke6XJzc6g-10" style="edgeStyle=orthogonalEdgeStyle;rounded=0;orthogonalLoop=1;jettySize=auto;html=1;exitX=0.5;exitY=1;exitDx=0;exitDy=0;exitPerimeter=0;entryX=0.5;entryY=0;entryDx=0;entryDy=0;entryPerimeter=0;" edge="1" parent="WIyWlLk6GJQsqaUBKTNV-1" source="3XNKm1Zu1vUke6XJzc6g-3" target="3XNKm1Zu1vUke6XJzc6g-9">
          <mxGeometry relative="1" as="geometry" />
        </mxCell>
        <mxCell id="3XNKm1Zu1vUke6XJzc6g-11" value="Correo no válido" style="strokeWidth=2;html=1;shape=mxgraph.flowchart.display;whiteSpace=wrap;" vertex="1" parent="WIyWlLk6GJQsqaUBKTNV-1">
          <mxGeometry x="560" y="220" width="100" height="60" as="geometry" />
        </mxCell>
        <mxCell id="3XNKm1Zu1vUke6XJzc6g-12" style="edgeStyle=orthogonalEdgeStyle;rounded=0;orthogonalLoop=1;jettySize=auto;html=1;exitX=1;exitY=0.5;exitDx=0;exitDy=0;exitPerimeter=0;entryX=0;entryY=0.5;entryDx=0;entryDy=0;entryPerimeter=0;" edge="1" parent="WIyWlLk6GJQsqaUBKTNV-1" source="3XNKm1Zu1vUke6XJzc6g-9" target="3XNKm1Zu1vUke6XJzc6g-11">
          <mxGeometry relative="1" as="geometry" />
        </mxCell>
        <mxCell id="3XNKm1Zu1vUke6XJzc6g-13" style="edgeStyle=orthogonalEdgeStyle;rounded=0;orthogonalLoop=1;jettySize=auto;html=1;exitX=0.5;exitY=0;exitDx=0;exitDy=0;exitPerimeter=0;entryX=0.5;entryY=0;entryDx=0;entryDy=0;entryPerimeter=0;" edge="1" parent="WIyWlLk6GJQsqaUBKTNV-1" source="3XNKm1Zu1vUke6XJzc6g-11" target="3XNKm1Zu1vUke6XJzc6g-9">
          <mxGeometry relative="1" as="geometry" />
        </mxCell>
        <mxCell id="3XNKm1Zu1vUke6XJzc6g-21" style="edgeStyle=orthogonalEdgeStyle;rounded=0;orthogonalLoop=1;jettySize=auto;html=1;exitX=0.5;exitY=1;exitDx=0;exitDy=0;exitPerimeter=0;entryX=0.5;entryY=0;entryDx=0;entryDy=0;" edge="1" parent="WIyWlLk6GJQsqaUBKTNV-1" source="3XNKm1Zu1vUke6XJzc6g-14" target="3XNKm1Zu1vUke6XJzc6g-20">
          <mxGeometry relative="1" as="geometry" />
        </mxCell>
        <mxCell id="3XNKm1Zu1vUke6XJzc6g-14" value="¿Formato de código correcto?" style="strokeWidth=2;html=1;shape=mxgraph.flowchart.decision;whiteSpace=wrap;" vertex="1" parent="WIyWlLk6GJQsqaUBKTNV-1">
          <mxGeometry x="311" y="310" width="206" height="60" as="geometry" />
        </mxCell>
        <mxCell id="3XNKm1Zu1vUke6XJzc6g-15" value="Código no válido" style="strokeWidth=2;html=1;shape=mxgraph.flowchart.display;whiteSpace=wrap;" vertex="1" parent="WIyWlLk6GJQsqaUBKTNV-1">
          <mxGeometry x="560" y="310" width="100" height="60" as="geometry" />
        </mxCell>
        <mxCell id="3XNKm1Zu1vUke6XJzc6g-16" style="edgeStyle=orthogonalEdgeStyle;rounded=0;orthogonalLoop=1;jettySize=auto;html=1;exitX=1;exitY=0.5;exitDx=0;exitDy=0;exitPerimeter=0;entryX=0;entryY=0.5;entryDx=0;entryDy=0;entryPerimeter=0;" edge="1" parent="WIyWlLk6GJQsqaUBKTNV-1" source="3XNKm1Zu1vUke6XJzc6g-14" target="3XNKm1Zu1vUke6XJzc6g-15">
          <mxGeometry relative="1" as="geometry" />
        </mxCell>
        <mxCell id="3XNKm1Zu1vUke6XJzc6g-17" style="edgeStyle=orthogonalEdgeStyle;rounded=0;orthogonalLoop=1;jettySize=auto;html=1;exitX=0.5;exitY=1;exitDx=0;exitDy=0;exitPerimeter=0;entryX=0.5;entryY=0;entryDx=0;entryDy=0;entryPerimeter=0;" edge="1" parent="WIyWlLk6GJQsqaUBKTNV-1" source="3XNKm1Zu1vUke6XJzc6g-9" target="3XNKm1Zu1vUke6XJzc6g-14">
          <mxGeometry relative="1" as="geometry" />
        </mxCell>
        <mxCell id="3XNKm1Zu1vUke6XJzc6g-19" style="edgeStyle=orthogonalEdgeStyle;rounded=0;orthogonalLoop=1;jettySize=auto;html=1;exitX=0.5;exitY=0;exitDx=0;exitDy=0;exitPerimeter=0;entryX=0.5;entryY=0;entryDx=0;entryDy=0;entryPerimeter=0;" edge="1" parent="WIyWlLk6GJQsqaUBKTNV-1" source="3XNKm1Zu1vUke6XJzc6g-15" target="3XNKm1Zu1vUke6XJzc6g-14">
          <mxGeometry relative="1" as="geometry" />
        </mxCell>
        <mxCell id="3XNKm1Zu1vUke6XJzc6g-20" value="logincodigo()" style="rounded=1;whiteSpace=wrap;html=1;absoluteArcSize=1;arcSize=14;strokeWidth=2;" vertex="1" parent="WIyWlLk6GJQsqaUBKTNV-1">
          <mxGeometry x="364" y="390" width="100" height="40" as="geometry" />
        </mxCell>
        <mxCell id="3XNKm1Zu1vUke6XJzc6g-22" style="edgeStyle=orthogonalEdgeStyle;rounded=0;orthogonalLoop=1;jettySize=auto;html=1;exitX=0.5;exitY=1;exitDx=0;exitDy=0;entryX=0.5;entryY=0;entryDx=0;entryDy=0;entryPerimeter=0;" edge="1" parent="WIyWlLk6GJQsqaUBKTNV-1" source="3XNKm1Zu1vUke6XJzc6g-20" target="3XNKm1Zu1vUke6XJzc6g-1">
          <mxGeometry relative="1" as="geometry" />
        </mxCell>
        <mxCell id="3XNKm1Zu1vUke6XJzc6g-23" value="Si" style="text;html=1;align=center;verticalAlign=middle;resizable=0;points=[];autosize=1;strokeColor=none;fillColor=none;" vertex="1" parent="WIyWlLk6GJQsqaUBKTNV-1">
          <mxGeometry x="405" y="178" width="30" height="30" as="geometry" />
        </mxCell>
        <mxCell id="3XNKm1Zu1vUke6XJzc6g-24" value="No" style="text;html=1;align=center;verticalAlign=middle;resizable=0;points=[];autosize=1;strokeColor=none;fillColor=none;" vertex="1" parent="WIyWlLk6GJQsqaUBKTNV-1">
          <mxGeometry x="490" y="138" width="40" height="30" as="geometry" />
        </mxCell>
        <mxCell id="3XNKm1Zu1vUke6XJzc6g-25" value="Si" style="text;html=1;align=center;verticalAlign=middle;resizable=0;points=[];autosize=1;strokeColor=none;fillColor=none;" vertex="1" parent="WIyWlLk6GJQsqaUBKTNV-1">
          <mxGeometry x="415" y="268" width="30" height="30" as="geometry" />
        </mxCell>
        <mxCell id="3XNKm1Zu1vUke6XJzc6g-26" value="No" style="text;html=1;align=center;verticalAlign=middle;resizable=0;points=[];autosize=1;strokeColor=none;fillColor=none;" vertex="1" parent="WIyWlLk6GJQsqaUBKTNV-1">
          <mxGeometry x="500" y="228" width="40" height="30" as="geometry" />
        </mxCell>
        <mxCell id="3XNKm1Zu1vUke6XJzc6g-27" value="Si" style="text;html=1;align=center;verticalAlign=middle;resizable=0;points=[];autosize=1;strokeColor=none;fillColor=none;" vertex="1" parent="WIyWlLk6GJQsqaUBKTNV-1">
          <mxGeometry x="415" y="358" width="30" height="30" as="geometry" />
        </mxCell>
        <mxCell id="3XNKm1Zu1vUke6XJzc6g-28" value="No" style="text;html=1;align=center;verticalAlign=middle;resizable=0;points=[];autosize=1;strokeColor=none;fillColor=none;" vertex="1" parent="WIyWlLk6GJQsqaUBKTNV-1">
          <mxGeometry x="490" y="318" width="40" height="30" as="geometry" />
        </mxCell>
      </root>
    </mxGraphModel>
  </diagram>
</mxfile>
